<svg xmlns="http://www.w3.org/2000/svg" fill="none" viewBox="0 0 77 92" height="92" width="77">
<g clip-path="url(#clip0_90_3065)">
<path fill="#FAF9F5" d="M75.3562 71.2113C73.9743 74.4038 72.3386 77.3425 70.4434 80.0443C67.8601 83.7275 65.7449 86.277 64.1148 87.6927C61.5879 90.0166 58.8805 91.2067 55.9813 91.2744C53.8999 91.2744 51.3899 90.6822 48.4682 89.4807C45.5368 88.285 42.843 87.6927 40.3798 87.6927C37.7964 87.6927 35.0258 88.285 32.0624 89.4807C29.0943 90.6822 26.7034 91.3083 24.8753 91.3703C22.0951 91.4887 19.324 90.2648 16.5579 87.6927C14.7924 86.1529 12.5842 83.5131 9.9388 79.7735C7.10052 75.7801 4.76707 71.1493 2.939 65.8698C0.981195 60.1673 -0.000244141 54.6453 -0.000244141 49.2993C-0.000244141 43.1754 1.32301 37.8937 3.97346 33.4676C6.05648 29.9125 8.82763 27.108 12.2959 25.0493C15.7643 22.9905 19.5118 21.9414 23.5475 21.8743C25.7558 21.8743 28.6516 22.5573 32.2502 23.8997C35.8386 25.2467 38.1428 25.9297 39.153 25.9297C39.9082 25.9297 42.4679 25.1311 46.8071 23.5388C50.9105 22.0621 54.3737 21.4507 57.2109 21.6915C64.8988 22.312 70.6746 25.3426 74.5158 30.8025C67.6401 34.9686 64.2389 40.8036 64.3066 48.2891C64.3686 54.1196 66.4838 58.9715 70.6408 62.824C72.5247 64.612 74.6286 65.9939 76.9694 66.9753C76.4617 68.4475 75.9259 69.8576 75.3562 71.2113ZM57.7242 1.82808C57.7242 6.39803 56.0546 10.665 52.7267 14.6144C48.7107 19.3095 43.8532 22.0226 38.5855 21.5945C38.5184 21.0462 38.4795 20.4692 38.4795 19.8629C38.4795 15.4757 40.3894 10.7806 43.781 6.94172C45.4742 4.99802 47.6277 3.38186 50.2393 2.09262C52.8452 0.822612 55.31 0.120273 57.6283 0C57.696 0.610931 57.7242 1.22196 57.7242 1.82808Z"></path>
</g>
<defs>
<clipPath id="clip0_90_3065">
<rect fill="white" height="91.3781" width="76.9696"></rect>
</clipPath>
</defs>
</svg>
