<svg xmlns="http://www.w3.org/2000/svg" fill="none" viewBox="0 0 163 98" height="98" width="163">
<path fill="#FAF9F5" d="M45.7554 35.262C45.7554 37.26 45.9714 38.88 46.3494 40.068C46.7814 41.256 47.3214 42.552 48.0774 43.956C48.3474 44.388 48.4554 44.82 48.4554 45.198C48.4554 45.738 48.1314 46.278 47.4294 46.818L44.0274 49.086C43.5414 49.41 43.0554 49.572 42.6234 49.572C42.0834 49.572 41.5434 49.302 41.0034 48.816C40.2474 48.006 39.5994 47.142 39.0594 46.278C38.5194 45.36 37.9794 44.334 37.3854 43.092C33.1734 48.06 27.8814 50.544 21.5094 50.544C16.9734 50.544 13.3554 49.248 10.7094 46.656C8.06338 44.064 6.71338 40.608 6.71338 36.288C6.71338 31.698 8.33338 27.972 11.6274 25.164C14.9214 22.356 19.2954 20.952 24.8574 20.952C26.6934 20.952 28.5834 21.114 30.5814 21.384C32.5794 21.654 34.6314 22.086 36.7914 22.572V18.63C36.7914 14.526 35.9274 11.664 34.2534 9.99C32.5254 8.316 29.6094 7.506 25.4514 7.506C23.5614 7.506 21.6174 7.722 19.6194 8.208C17.6214 8.694 15.6774 9.288 13.7874 10.044C12.9234 10.422 12.2754 10.638 11.8974 10.746C11.5194 10.854 11.2494 10.908 11.0334 10.908C10.2774 10.908 9.89938 10.368 9.89938 9.234V6.588C9.89938 5.724 10.0074 5.076 10.2774 4.698C10.5474 4.32 11.0334 3.942 11.7894 3.564C13.6794 2.592 15.9474 1.782 18.5934 1.134C21.2394 0.432 24.0474 0.108 27.0174 0.108C33.4434 0.108 38.1414 1.566 41.1654 4.482C44.1354 7.398 45.6474 11.826 45.6474 17.766V35.262H45.7554ZM23.8314 43.47C25.6134 43.47 27.4494 43.146 29.3934 42.498C31.3374 41.85 33.0654 40.662 34.5234 39.042C35.3874 38.016 36.0354 36.882 36.3594 35.586C36.6834 34.29 36.8994 32.724 36.8994 30.888V28.62C35.3334 28.242 33.6594 27.918 31.9314 27.702C30.2034 27.486 28.5294 27.378 26.8554 27.378C23.2374 27.378 20.5914 28.08 18.8094 29.538C17.0274 30.996 16.1634 33.048 16.1634 35.748C16.1634 38.286 16.8114 40.176 18.1614 41.472C19.4574 42.822 21.3474 43.47 23.8314 43.47ZM67.1934 49.302C66.2214 49.302 65.5734 49.14 65.1414 48.762C64.7094 48.438 64.3314 47.682 64.0074 46.656L51.3174 4.914C50.9934 3.834 50.8314 3.132 50.8314 2.754C50.8314 1.89 51.2634 1.404 52.1274 1.404H57.4194C58.4454 1.404 59.1474 1.566 59.5254 1.944C59.9574 2.268 60.2814 3.024 60.6054 4.05L69.6774 39.798L78.1014 4.05C78.3714 2.97 78.6954 2.268 79.1274 1.944C79.5594 1.62 80.3154 1.404 81.2874 1.404H85.6074C86.6334 1.404 87.3354 1.566 87.7674 1.944C88.1994 2.268 88.5774 3.024 88.7934 4.05L97.3254 40.23L106.667 4.05C106.991 2.97 107.369 2.268 107.747 1.944C108.179 1.62 108.881 1.404 109.853 1.404H114.875C115.739 1.404 116.225 1.836 116.225 2.754C116.225 3.024 116.171 3.294 116.117 3.618C116.063 3.942 115.955 4.374 115.739 4.968L102.725 46.71C102.401 47.79 102.023 48.492 101.591 48.816C101.159 49.14 100.457 49.356 99.5394 49.356H94.8954C93.8694 49.356 93.1674 49.194 92.7354 48.816C92.3034 48.438 91.9254 47.736 91.7094 46.656L83.3394 11.826L75.0234 46.602C74.7534 47.682 74.4294 48.384 73.9974 48.762C73.5654 49.14 72.8094 49.302 71.8374 49.302H67.1934ZM136.583 50.76C133.775 50.76 130.967 50.436 128.267 49.788C125.567 49.14 123.461 48.438 122.057 47.628C121.193 47.142 120.599 46.602 120.383 46.116C120.167 45.63 120.059 45.09 120.059 44.604V41.85C120.059 40.716 120.491 40.176 121.301 40.176C121.625 40.176 121.949 40.23 122.273 40.338C122.597 40.446 123.083 40.662 123.623 40.878C125.459 41.688 127.457 42.336 129.563 42.768C131.723 43.2 133.829 43.416 135.989 43.416C139.391 43.416 142.037 42.822 143.873 41.634C145.709 40.446 146.681 38.718 146.681 36.504C146.681 34.992 146.195 33.75 145.223 32.724C144.251 31.698 142.415 30.78 139.769 29.916L131.939 27.486C127.997 26.244 125.081 24.408 123.299 21.978C121.517 19.602 120.599 16.956 120.599 14.148C120.599 11.88 121.085 9.882 122.057 8.154C123.029 6.426 124.325 4.914 125.945 3.726C127.565 2.484 129.401 1.566 131.561 0.918C133.721 0.27 135.989 0 138.365 0C139.553 0 140.795 0.054 141.983 0.216C143.225 0.378 144.359 0.594 145.493 0.81C146.573 1.08 147.599 1.35 148.571 1.674C149.543 1.998 150.299 2.322 150.839 2.646C151.595 3.078 152.135 3.51 152.459 3.996C152.783 4.428 152.945 5.022 152.945 5.778V8.316C152.945 9.45 152.513 10.044 151.703 10.044C151.271 10.044 150.569 9.828 149.651 9.396C146.573 7.992 143.117 7.29 139.283 7.29C136.205 7.29 133.775 7.776 132.101 8.802C130.427 9.828 129.563 11.394 129.563 13.608C129.563 15.12 130.103 16.416 131.183 17.442C132.263 18.468 134.261 19.494 137.123 20.412L144.791 22.842C148.679 24.084 151.487 25.812 153.161 28.026C154.835 30.24 155.645 32.778 155.645 35.586C155.645 37.908 155.159 40.014 154.241 41.85C153.269 43.686 151.973 45.306 150.299 46.602C148.625 47.952 146.627 48.924 144.305 49.626C141.875 50.382 139.337 50.76 136.583 50.76Z"></path>
<path fill="white" d="M146.789 77.004C129.023 90.126 103.211 97.092 81.0173 97.092C49.9133 97.092 21.8873 85.59 0.719289 66.474C-0.954711 64.962 0.557289 62.91 2.55529 64.098C25.4513 77.382 53.6933 85.428 82.9073 85.428C102.617 85.428 124.271 81.324 144.197 72.9C147.167 71.55 149.705 74.844 146.789 77.004Z" clip-rule="evenodd" fill-rule="evenodd"></path>
<path fill="white" d="M154.187 68.58C151.919 65.664 139.175 67.176 133.397 67.878C131.669 68.094 131.399 66.582 132.965 65.448C143.117 58.32 159.803 60.372 161.747 62.748C163.691 65.178 161.207 81.864 151.703 89.856C150.245 91.098 148.841 90.45 149.489 88.83C151.649 83.484 156.455 71.442 154.187 68.58Z" clip-rule="evenodd" fill-rule="evenodd"></path>
</svg>
