<svg xmlns="http://www.w3.org/2000/svg" fill="none" viewBox="0 0 357 49" height="49" width="357">
<g clip-path="url(#clip0_90_3068)">
<path fill="#FAF9F5" d="M76.973 34.4234H68.0645V13.8799H76.7295C79.0669 13.8799 80.5267 15.3887 80.5267 17.4335C80.5267 19.4784 79.0669 20.9381 76.7295 20.9381H66.8244V26.8781H76.973C79.6995 26.8781 81.1593 28.6304 81.1593 30.6738C81.1593 33.0112 79.6015 34.4234 76.973 34.4234ZM81.9864 23.6646C85.0544 23.032 87.5863 20.3055 87.5863 16.2173C87.5863 11.8841 84.4218 7.94141 78.2383 7.94141H61.1519V40.4109H78.7744C84.9564 40.4109 88.2175 36.5158 88.2175 31.6479C88.2175 27.5583 85.4435 24.2007 81.9864 23.6646Z"></path>
<path fill="#FAF9F5" d="M108.453 22.7877H100.979V28.8732H106.262L112.639 40.4102H120.573L113.271 28.0446C116.777 27.2175 120.379 24.1509 120.379 18.407M120.379 18.407C120.379 12.3704 116.241 7.94067 109.474 7.94067H94.2856V40.4102H101.198V14.0262H108.453C111.228 14.0262 113.32 15.6805 113.32 18.407C113.32 21.1334 111.228 22.7877 108.453 22.7877"></path>
<path fill="#FAF9F5" d="M172.934 28.825L177.996 14.8541L183.06 28.825H172.934ZM173.665 7.94141L161.104 40.4109H168.99L171.035 34.9105H184.958L186.954 40.4109H194.841L182.33 7.94141H173.665Z"></path>
<path fill="#FAF9F5" d="M213.616 34.3254H207.725V14.0255H213.616C220.285 14.0255 223.79 18.4552 223.79 24.2007C223.79 29.7011 220.042 34.3254 213.616 34.3254ZM213.616 7.94141H200.812V40.4109H213.616C223.79 40.4109 230.848 33.9853 230.848 24.2007C230.848 14.416 223.79 7.94141 213.616 7.94141Z"></path>
<path fill="#FAF9F5" d="M335.576 7.93457L327.061 21.7005L318.546 7.93457H310.904V40.41H317.818V19.1849L325.261 30.5036C326.113 31.797 328.01 31.797 328.86 30.5036L336.305 19.1849V40.41H343.219V7.93457H335.576Z"></path>
<path fill="#FAF9F5" d="M142.3 34.6659C136.552 34.6659 131.893 30.0059 131.893 24.259C131.893 18.5105 136.552 13.8506 142.3 13.8506C148.047 13.8506 152.707 18.5105 152.707 24.259C152.707 30.0059 148.047 34.6659 142.3 34.6659ZM142.3 7.13989C132.845 7.13989 125.181 14.804 125.181 24.259C125.181 33.7125 132.845 41.3766 142.3 41.3766C151.754 41.3766 159.419 33.7125 159.419 24.259C159.419 14.804 151.754 7.13989 142.3 7.13989Z"></path>
<path fill="#FAF9F5" d="M261.959 29.2946C260.184 32.4963 256.773 34.6659 252.853 34.6659C247.106 34.6659 242.446 30.0059 242.446 24.259C242.446 18.5105 247.106 13.8521 252.853 13.8521C256.741 13.8521 260.125 15.9875 261.911 19.1461L266.767 14.2917C263.661 9.96288 258.588 7.13989 252.853 7.13989C243.398 7.13989 235.735 14.804 235.735 24.259C235.735 33.7125 243.398 41.3781 252.853 41.3781C258.619 41.3781 263.717 38.5239 266.818 34.1535L261.959 29.2946Z"></path>
<path fill="#FAF9F5" d="M288.897 34.6659C283.149 34.6659 278.491 30.0059 278.491 24.259C278.491 18.5105 283.149 13.8506 288.897 13.8506C294.644 13.8506 299.304 18.5105 299.304 24.259C299.304 30.0059 294.644 34.6659 288.897 34.6659ZM288.897 7.13989C279.442 7.13989 271.778 14.804 271.778 24.259C271.778 33.7125 279.442 41.3766 288.897 41.3766C298.351 41.3766 306.016 33.7125 306.016 24.259C306.016 14.804 298.351 7.13989 288.897 7.13989Z"></path>
<path fill="#CC092F" d="M24.5314 48.6077C37.8475 48.6077 48.6423 37.8135 48.6423 24.4982C48.6423 11.1829 37.8475 0.388672 24.5314 0.388672C11.2152 0.388672 0.42041 11.1829 0.42041 24.4982C0.42041 37.8135 11.2152 48.6077 24.5314 48.6077Z"></path>
<path fill="white" d="M45.7756 31.0113C43.0179 29.9124 40.4934 30.2807 37.963 31.8147C37.963 31.8147 37.0408 32.3775 36.7646 32.5512C35.5855 33.2908 34.4732 33.9917 33.404 33.9917C32.3838 33.9917 31.38 33.7184 30.9553 31.7449C30.2929 28.6665 28.6773 21.1019 27.9719 17.3552C27.5576 15.153 27.3304 13.9665 27.0943 13.1601C26.6785 11.7434 25.9181 10.9727 24.8385 10.8494C24.8385 10.8494 24.6692 10.8257 24.5311 10.8257C24.3945 10.8257 24.2074 10.8524 24.2074 10.8524C23.1382 10.9801 22.3823 11.7508 21.9695 13.1601C21.7334 13.9665 21.5062 15.153 21.0919 17.3552C20.3865 21.1019 18.7708 28.6665 18.1085 31.7449C17.6838 33.7184 16.6799 33.9917 15.6598 33.9917C14.5906 33.9917 13.4783 33.2908 12.2992 32.5512C12.023 32.3775 11.0993 31.8147 11.0993 31.8147C8.57036 30.2807 6.04438 29.9124 3.28822 31.0113C2.69273 31.2489 2.10621 31.515 1.54785 31.7838C1.9295 32.9807 2.4046 34.1586 2.9585 35.265C3.56884 34.965 4.20892 34.6674 4.86232 34.4743C5.80381 34.1966 6.76906 34.1818 7.70461 34.4951C8.61343 34.7995 9.42275 35.3386 10.2291 35.845C11.7483 36.7998 13.4694 37.8824 15.6598 37.8824C18.906 37.8824 21.184 35.9445 21.9116 32.5646C22.4759 29.9451 23.7263 24.0971 24.5297 20.0639C24.5297 20.0639 26.5879 29.9451 27.1507 32.5646C27.8783 35.9445 30.1578 37.8824 33.404 37.8824C35.5944 37.8824 37.3155 36.7998 38.8347 35.845C39.641 35.3386 40.4503 34.7995 41.3592 34.4951C42.2932 34.1818 43.26 34.1966 44.2015 34.4743C44.8549 34.6674 45.494 34.9653 46.1043 35.2653C46.6597 34.159 47.1335 32.9804 47.5152 31.7835C46.9568 31.5147 46.371 31.2489 45.7756 31.0113Z"></path>
</g>
<defs>
<clipPath id="clip0_90_3068">
<rect fill="white" height="49.005" width="356.4"></rect>
</clipPath>
</defs>
</svg>
