<svg xmlns="http://www.w3.org/2000/svg" fill="none" viewBox="0 0 206 109" height="109" width="206">
<g clip-path="url(#clip0_90_3081)">
<path fill="#FAF9F5" d="M101.155 72.426C100.887 72.3528 96.7654 71.2898 92.385 71.2898C84.0915 71.2898 79.0983 75.7681 79.0983 82.4371C79.0983 88.3404 83.2754 91.2844 88.2886 92.8681C88.8443 93.0514 89.6632 93.3079 90.2085 93.4884C92.4401 94.1905 94.2213 95.2336 94.2213 97.0405C94.2213 99.0611 92.1627 100.369 87.6872 100.369C83.7542 100.369 79.9837 99.2445 79.1895 99.044V107.249C79.6322 107.343 84.1133 108.223 88.9004 108.223C95.786 108.223 103.662 105.214 103.662 96.2577C103.662 91.9133 101.002 87.9138 95.1628 86.0575L92.6804 85.2671C91.1994 84.7997 88.5555 84.0426 88.5555 81.8718C88.5555 80.1571 90.5144 78.9496 94.1216 78.9496C97.2338 78.9496 101.021 79.9956 101.155 80.0374V72.426ZM177.194 89.7568C177.194 94.9448 173.22 99.1419 167.888 99.1419C162.55 99.1419 158.587 94.9448 158.587 89.7568C158.587 84.5793 162.55 80.3803 167.888 80.3803C173.22 80.3803 177.194 84.5793 177.194 89.7568ZM167.888 71.3012C156.921 71.3012 149.056 79.5728 149.056 89.7568C149.056 99.957 156.921 108.223 167.888 108.223C178.854 108.223 186.73 99.957 186.73 89.7568C186.73 79.5728 178.854 71.3012 167.888 71.3012ZM67.0323 107.588H58.0339V71.9329H67.0323"></path>
<path fill="#FAF9F5" d="M45.6665 72.579C44.821 72.3282 41.6955 71.3013 37.4623 71.3013C26.5126 71.3013 18.4746 79.1084 18.4746 89.7569C18.4746 101.245 27.3476 108.223 37.4623 108.223C41.4808 108.223 44.5483 107.271 45.6665 106.954V97.3826C45.2798 97.5973 42.3386 99.275 38.1073 99.275C32.1128 99.275 28.2463 95.056 28.2463 89.7569C28.2463 84.2963 32.28 80.2465 38.1073 80.2465C42.4108 80.2465 45.3045 81.9612 45.6665 82.1503"></path>
<path fill="#FAF9F5" d="M139.583 72.579C138.737 72.3282 135.612 71.3013 131.379 71.3013C120.429 71.3013 112.391 79.1084 112.391 89.7569C112.391 101.245 121.264 108.223 131.379 108.223C135.397 108.223 138.465 107.271 139.583 106.954V97.3826C139.196 97.5973 136.255 99.275 132.024 99.275C126.029 99.275 122.163 95.056 122.163 89.7569C122.163 84.2963 126.196 80.2465 132.024 80.2465C136.327 80.2465 139.221 81.9612 139.583 82.1503"></path>
<path fill="#FAF9F5" d="M58.007 4.52106C58.007 2.06341 55.9996 0.0703125 53.5391 0.0703125C51.0796 0.0703125 49.0722 2.06341 49.0722 4.52106V51.8691C49.0722 54.341 51.0796 56.3331 53.5391 56.3331C55.9996 56.3331 58.007 54.341 58.007 51.8691V4.52106ZM33.4694 21.3285C33.4694 18.8718 31.463 16.8758 29.0025 16.8758C26.542 16.8758 24.5356 18.8718 24.5356 21.3285V42.9742C24.5356 45.4452 26.542 47.4383 29.0025 47.4383C31.463 47.4383 33.4694 45.4452 33.4694 42.9742V21.3285ZM8.93282 33.6139C8.93282 31.1562 6.92642 29.1641 4.46592 29.1641C2.00827 29.1641 -0.000976562 31.1562 -0.000976562 33.6139V42.9742C-0.000976562 45.4452 2.00827 47.4383 4.46592 47.4383C6.92642 47.4383 8.93282 45.4452 8.93282 42.9742"></path>
<path fill="#FAF9F5" d="M49.0721 4.52106C49.0721 2.06341 51.0795 0.0703125 53.54 0.0703125C55.9995 0.0703125 58.0069 2.06341 58.0069 4.52106V51.8691C58.0069 54.341 55.9995 56.3331 53.54 56.3331C51.0795 56.3331 49.0721 54.341 49.0721 51.8691V4.52106ZM73.6097 21.3285C73.6097 18.8718 75.6161 16.8758 78.0766 16.8758C80.5371 16.8758 82.5435 18.8718 82.5435 21.3285V42.9742C82.5435 45.4452 80.5371 47.4383 78.0766 47.4383C75.6161 47.4383 73.6097 45.4452 73.6097 42.9742V21.3285ZM98.1463 33.6139C98.1463 31.1562 100.153 29.1641 102.613 29.1641C105.071 29.1641 107.08 31.1562 107.08 33.6139V42.9742C107.08 45.4452 105.071 47.4383 102.613 47.4383C100.153 47.4383 98.1463 45.4452 98.1463 42.9742"></path>
<path fill="#FAF9F5" d="M147.192 4.52106C147.192 2.06341 149.2 0.0703125 151.66 0.0703125C154.12 0.0703125 156.127 2.06341 156.127 4.52106V51.8691C156.127 54.341 154.12 56.3331 151.66 56.3331C149.2 56.3331 147.192 54.341 147.192 51.8691V4.52106ZM171.73 21.3285C171.73 18.8718 173.736 16.8758 176.197 16.8758C178.657 16.8758 180.664 18.8718 180.664 21.3285V42.9742C180.664 45.4452 178.657 47.4383 176.197 47.4383C173.736 47.4383 171.73 45.4452 171.73 42.9742V21.3285ZM196.266 33.6139C196.266 31.1562 198.273 29.1641 200.733 29.1641C203.191 29.1641 205.2 31.1562 205.2 33.6139V42.9742C205.2 45.4452 203.191 47.4383 200.733 47.4383C198.273 47.4383 196.266 45.4452 196.266 42.9742"></path>
<path fill="#FAF9F5" d="M156.127 4.52106C156.127 2.06341 154.12 0.0703125 151.659 0.0703125C149.2 0.0703125 147.192 2.06341 147.192 4.52106V51.8691C147.192 54.341 149.2 56.3331 151.659 56.3331C154.12 56.3331 156.127 54.341 156.127 51.8691V4.52106ZM131.59 21.3285C131.59 18.8718 129.583 16.8758 127.123 16.8758C124.662 16.8758 122.656 18.8718 122.656 21.3285V42.9742C122.656 45.4452 124.662 47.4383 127.123 47.4383C129.583 47.4383 131.59 45.4452 131.59 42.9742V21.3285ZM107.053 33.6139C107.053 31.1562 105.047 29.1641 102.586 29.1641C100.128 29.1641 98.1191 31.1562 98.1191 33.6139V42.9742C98.1191 45.4452 100.128 47.4383 102.586 47.4383C105.047 47.4383 107.053 45.4452 107.053 42.9742"></path>
</g>
<defs>
<clipPath id="clip0_90_3081">
<rect fill="white" height="108.3" width="205.2"></rect>
</clipPath>
</defs>
</svg>
