<svg xmlns="http://www.w3.org/2000/svg" fill="none" viewBox="0 0 376 67" height="67" width="376">
<path fill="#FAF9F5" d="M59.9379 32.1476V31.479L54.2751 26.6046H53.6152C52.0579 28.3252 49.6534 29.6146 46.9636 29.6146C42.7644 29.6146 39.4604 26.4129 39.4604 22.0177C39.4604 17.6225 42.7644 14.4209 46.9636 14.4209C49.6534 14.4209 52.0579 15.7102 53.6152 17.4309H54.2751L59.9379 12.5565V11.8878C56.965 8.25712 52.2953 5.91577 47.0093 5.91577C37.2911 5.91577 29.9316 12.7961 29.9316 22.0177C29.9316 22.3749 30.0122 22.7038 30.0362 23.0545C34.0132 25.7595 37.5241 27.9245 40.5472 29.9064C44.9054 32.6638 48.4229 35.2012 51.3196 37.5599C54.9307 36.6473 57.858 34.6675 59.9379 32.1476ZM33.4752 31.9755C35.7447 34.7634 38.9486 36.7628 42.7274 37.6166C40.1748 36.1813 37.7027 34.7721 35.4006 33.2126C34.7254 32.7945 34.1243 32.3894 33.4752 31.9755Z"></path>
<path fill="#FAF9F5" d="M92.717 36.0687L91.3013 29.9529L90.7829 29.6175C90.4998 29.7612 90.2646 29.9529 89.5567 29.9529C88.4699 29.9529 87.8099 28.8051 87.2437 27.899C86.3006 26.4637 85.5448 25.6992 84.8849 25.366C88.3283 23.837 90.6414 20.9708 90.6414 16.8609C90.6414 10.5055 86.3006 6.49146 78.2333 6.49146H64.1721V37.5497H73.5136V26.6554H74.363C76.4386 26.6554 79.0827 31.1464 80.3089 33.1545C82.8572 37.2165 84.8849 38.1225 88.5178 38.1225C90.2166 38.1225 91.6323 37.5018 92.4818 36.7373L92.717 36.0687ZM81.1104 17.3858C81.1104 19.4418 79.6011 20.4437 77.8543 20.4437H73.5136V14.1362H77.8543C79.6011 14.1362 81.1104 15.284 81.1104 17.3858Z"></path>
<path fill="#FAF9F5" d="M128.807 22.0282C128.807 12.8066 121.447 5.92627 111.681 5.92627C101.913 5.92627 94.5532 12.8066 94.5532 22.0282C94.5532 31.2499 101.913 38.1302 111.681 38.1302C121.447 38.1302 128.807 31.202 128.807 22.0282ZM119.276 22.0282C119.276 26.4713 115.878 29.6251 111.681 29.6251C107.482 29.6251 104.084 26.4713 104.084 22.0282C104.084 17.5851 107.482 14.4314 111.681 14.4314C115.878 14.4314 119.276 17.5851 119.276 22.0282Z"></path>
<path fill="#FAF9F5" d="M149.628 6.5L143.813 23.5951L138.303 6.5H129.373L128.959 7.21656L140.372 37.5561H146.035L152.46 20.633L158.907 37.5561H164.57L176.004 7.21656L175.568 6.5H166.66L161.128 23.704L155.291 6.5H149.628Z"></path>
<path fill="#FAF9F5" d="M210.2 21.9834C210.2 12.7139 204.019 6.5022 193.969 6.5022H179.673V37.5605H193.969C204.019 37.5605 210.2 31.3488 210.2 21.9834ZM200.669 22.0313C200.669 27.0952 197.696 29.9157 193.592 29.9157H189.014V14.147H193.592C197.696 14.147 200.669 16.9675 200.669 22.0313Z"></path>
<path fill="#FAF9F5" d="M241.105 14.1448H250.253V37.5561H259.618V14.1448H268.983V6.5H241.105V14.1448Z"></path>
<path fill="#FAF9F5" d="M298.821 16.8673C298.821 10.5119 294.48 6.4978 286.413 6.4978H272.352V37.5561H281.695V26.6617H283.913L289.715 37.5561H299.011L299.435 36.8395L293.206 25.3244C296.556 23.7476 298.821 20.9292 298.821 16.8673ZM289.29 17.3922C289.29 19.4482 287.781 20.4501 286.034 20.4501H281.695V14.1426H286.034C287.781 14.1426 289.29 15.2904 289.29 17.3922Z"></path>
<path fill="#FAF9F5" d="M304.484 37.5561H313.849V6.5H304.484V37.5561Z"></path>
<path fill="#FAF9F5" d="M329.095 17.5381V6.5H319.729V37.5561H329.095V27.9947L330.837 25.9909L338.678 37.5561H348.479L348.914 36.8374L337.589 20.3935L348.043 7.21656L347.825 6.5H337.807L329.095 17.5381Z"></path>
<path fill="#FAF9F5" d="M360.896 29.9113V25.6206H371.568V18.4441H360.896V14.1448H374.835V6.4978H351.531V37.5561H375.053V29.9113H360.896Z"></path>
<path fill="#FAF9F5" d="M226.078 37.9185C232.921 37.9185 238.86 34.5753 238.86 28.1284C238.86 21.1022 232.873 19.2858 227.589 17.7568C225.511 17.1361 223.386 16.4173 223.386 14.8884C223.386 13.7885 224.566 13.1198 226.361 13.1198C229.43 13.1198 232.024 15.0321 233.343 16.2758H234.003L238.39 11.0202V10.3516C236.079 7.72493 231.364 5.71899 226.171 5.71899C218.905 5.71899 213.861 9.63504 213.861 15.3196C213.861 21.4376 219.424 24.1144 224.141 25.4517C227.21 26.312 229.29 26.4557 229.29 28.1284C229.29 29.3242 227.824 30.0407 225.557 30.0407C222.678 30.0407 219.189 28.1764 217.492 26.5036H216.832L212.493 31.9508V32.6195C215.275 35.7231 220.273 37.9185 226.078 37.9185Z"></path>
<path fill="#FAF9F5" d="M64.9474 66.472C62.6845 61.2927 58.139 54.6477 40.336 45.1581C32.125 40.593 18.0987 33.5646 5.48804 20.1982C6.63149 25.0203 12.4903 35.6163 37.6789 48.8389C44.6572 52.657 56.4576 56.2376 64.9474 66.4546"></path>
<path fill="#FAF9F5" d="M63.8154 57.6081C61.6679 51.4879 57.7911 43.6515 39.4 32.0166C30.4463 26.1491 17.2933 18.7809 0 0C1.2371 5.06385 6.70388 18.232 34.2599 35.3272C43.3117 41.4604 54.9945 45.2436 63.8154 57.6081Z"></path>
</svg>
