<svg xmlns="http://www.w3.org/2000/svg" fill="none" viewBox="0 0 245 83" height="83" width="245">
<path fill="#FAF9F5" d="M104.175 42.462C104.175 53.955 95.184 62.424 84.15 62.424C73.116 62.424 64.125 53.955 64.125 42.462C64.125 30.888 73.116 22.5 84.15 22.5C95.184 22.5 104.175 30.888 104.175 42.462ZM95.409 42.462C95.409 35.28 90.198 30.366 84.15 30.366C78.102 30.366 72.891 35.28 72.891 42.462C72.891 49.572 78.102 54.558 84.15 54.558C90.198 54.558 95.409 49.563 95.409 42.462Z"></path>
<path fill="#FAF9F5" d="M147.375 42.462C147.375 53.955 138.384 62.424 127.35 62.424C116.316 62.424 107.325 53.955 107.325 42.462C107.325 30.897 116.316 22.5 127.35 22.5C138.384 22.5 147.375 30.888 147.375 42.462ZM138.609 42.462C138.609 35.28 133.398 30.366 127.35 30.366C121.302 30.366 116.091 35.28 116.091 42.462C116.091 49.572 121.302 54.558 127.35 54.558C133.398 54.558 138.609 49.563 138.609 42.462Z"></path>
<path fill="#FAF9F5" d="M188.775 23.706V59.544C188.775 74.286 180.081 80.307 169.803 80.307C160.128 80.307 154.305 73.836 152.109 68.544L159.741 65.367C161.1 68.616 164.43 72.45 169.794 72.45C176.373 72.45 180.45 68.391 180.45 60.75V57.879H180.144C178.182 60.3 174.402 62.415 169.632 62.415C159.651 62.415 150.507 53.721 150.507 42.534C150.507 31.266 159.651 22.5 169.632 22.5C174.393 22.5 178.173 24.615 180.144 26.964H180.45V23.715H188.775V23.706ZM181.071 42.534C181.071 35.505 176.382 30.366 170.415 30.366C164.367 30.366 159.3 35.505 159.3 42.534C159.3 49.491 164.367 54.558 170.415 54.558C176.382 54.558 181.071 49.491 181.071 42.534Z"></path>
<path fill="#FAF9F5" d="M202.5 2.69995V61.2H193.95V2.69995H202.5Z"></path>
<path fill="#FAF9F5" d="M235.818 49.032L242.622 53.568C240.426 56.817 235.134 62.415 225.99 62.415C214.65 62.415 206.181 53.649 206.181 42.453C206.181 30.582 214.722 22.491 225.009 22.491C235.368 22.491 240.435 30.735 242.091 35.19L243 37.458L216.315 48.51C218.358 52.515 221.535 54.558 225.99 54.558C230.454 54.558 233.55 52.362 235.818 49.032ZM214.875 41.85L232.713 34.443C231.732 31.95 228.78 30.213 225.306 30.213C220.851 30.213 214.65 34.146 214.875 41.85Z"></path>
<path fill="#FAF9F5" d="M31.761 37.2688V28.7999H60.3C60.579 30.2759 60.723 32.0219 60.723 33.9118C60.723 40.2659 58.986 48.1228 53.388 53.7208C47.943 59.3908 40.986 62.4148 31.77 62.4148C14.688 62.4148 0.323975 48.5008 0.323975 31.4188C0.323975 14.3369 14.688 0.422852 31.77 0.422852C41.22 0.422852 47.952 4.13085 53.01 8.96385L47.034 14.9399C43.407 11.5379 38.493 8.89185 31.761 8.89185C19.287 8.89185 9.53098 18.9449 9.53098 31.4188C9.53098 43.8928 19.287 53.9458 31.761 53.9458C39.852 53.9458 44.46 50.6968 47.412 47.7449C49.806 45.3508 51.381 41.9309 52.002 37.2598L31.761 37.2688Z"></path>
</svg>
