<svg xmlns="http://www.w3.org/2000/svg" fill="none" viewBox="0 0 375 54" height="54" width="375">
<g clip-path="url(#clip0_114_397)">
<path fill="#FAF9F5" d="M100.159 39.0349C101.099 39.4131 102.492 39.6565 104.338 39.7688V40.5588H83.5062V39.7688C85.3482 39.6565 86.7447 39.4131 87.6845 39.0349C88.6242 38.6605 89.2757 38.0578 89.6314 37.2266C89.987 36.3992 90.1667 35.1749 90.1667 33.5575V8.37533H89.9983L75.7149 41.2926H75.5464L60.2447 8.49139H60.0762V33.5575C60.0762 35.1749 60.2634 36.3992 60.6416 37.2266C61.016 38.054 61.6674 38.6568 62.5884 39.0349C63.5095 39.4131 64.8948 39.6565 66.7368 39.7688V40.5588H50.8435V39.7688C52.6856 39.6565 54.0708 39.4131 54.9919 39.0349C55.9129 38.6605 56.5644 38.0578 56.9388 37.2266C57.3132 36.3992 57.5041 35.1749 57.5041 33.5575V8.31917C57.5041 6.70176 57.3169 5.47747 56.9388 4.65005C56.5606 3.82262 55.9129 3.21984 54.9919 2.8417C54.0671 2.4673 52.6856 2.22019 50.8435 2.10787V1.31789H65.1007L78.1223 29.7461L90.7508 1.31789H104.338V2.10787C102.492 2.22019 101.099 2.4673 100.159 2.8417C99.2197 3.21984 98.5608 3.83011 98.1826 4.67626C97.8045 5.5224 97.6173 6.73546 97.6173 8.31917V33.5575C97.6173 35.1749 97.8045 36.3992 98.1826 37.2266C98.5608 38.0578 99.2197 38.6568 100.159 39.0349ZM128.464 20.0079C129.629 22.1532 130.213 24.5794 130.213 27.29C130.213 30.0007 129.629 32.4268 128.464 34.5721C127.296 36.7174 125.671 38.376 123.582 39.5404C121.493 40.7085 119.112 41.2926 116.438 41.2926C113.765 41.2926 111.395 40.7085 109.325 39.5404C107.254 38.376 105.626 36.7174 104.443 34.5721C103.256 32.4268 102.664 30.0007 102.664 27.29C102.664 24.5794 103.256 22.1532 104.443 20.0079C105.629 17.8626 107.254 16.2078 109.325 15.0396C111.395 13.8715 113.765 13.2875 116.438 13.2875C119.112 13.2875 121.493 13.8715 123.582 15.0396C125.671 16.2078 127.296 17.8626 128.464 20.0079ZM122.818 27.29C122.818 24.6168 122.564 22.3217 122.054 20.4011C121.545 18.4804 120.811 17.024 119.853 16.0243C118.894 15.0284 117.753 14.5267 116.438 14.5267C115.121 14.5267 113.982 15.0247 113.024 16.0243C112.065 17.024 111.332 18.4804 110.822 20.4011C110.313 22.3217 110.059 24.6168 110.059 27.29C110.059 29.9632 110.313 32.2583 110.822 34.179C111.332 36.0997 112.065 37.5561 113.024 38.5557C113.982 39.5554 115.121 40.0533 116.438 40.0533C117.756 40.0533 118.894 39.5554 119.853 38.5557C120.811 37.5598 121.545 36.0997 122.054 34.179C122.564 32.2583 122.818 29.9632 122.818 27.29ZM149.356 19.3303C150.333 19.3303 151.22 19.4988 152.01 19.8395V13.6282C151.52 13.4035 150.939 13.2912 150.262 13.2912C148.528 13.2912 146.997 14.055 145.66 15.5788C144.324 17.1026 143.283 18.8548 142.317 22.3442H142.19V13.5158H141.965L130.785 16.7357V17.4695C132.066 17.4695 133.054 17.5931 133.751 17.8364C134.447 18.0798 134.945 18.4766 135.248 19.0233C135.548 19.5699 135.701 20.3112 135.701 21.2547V35.2572C135.701 36.4254 135.589 37.2902 135.364 37.8556C135.14 38.4209 134.724 38.844 134.121 39.1248C133.519 39.4056 132.56 39.6228 131.242 39.7725V40.5625H146.937V39.7725C145.619 39.6602 144.631 39.4618 143.972 39.181C143.313 38.9002 142.852 38.4659 142.59 37.8818C142.328 37.2977 142.193 36.4216 142.193 35.2572V24.16C143.376 21.3782 145.982 19.3303 149.356 19.3303ZM231.742 37.8219C231.518 37.2378 231.405 36.3655 231.405 35.1973V22.3217C231.405 16.2752 228.058 13.2875 223.67 13.2875C219.282 13.2875 216.463 16.395 215.258 18.0498H215.145V13.5158H214.921L203.741 16.7357V17.4695C204.984 17.4695 205.961 17.5931 206.676 17.8364C207.391 18.0798 207.901 18.4654 208.2 18.9933C208.5 19.5212 208.653 20.255 208.653 21.1948V35.1936C208.653 36.3617 208.541 37.2378 208.316 37.8181C208.092 38.4022 207.676 38.8328 207.073 39.1173C206.47 39.3981 205.512 39.6153 204.194 39.765V40.555H218.874V39.765C217.86 39.6153 217.077 39.3981 216.531 39.1173C215.984 38.8365 215.617 38.4022 215.43 37.8181C215.243 37.2341 215.149 36.3617 215.149 35.1936V20.1015C216.448 18.5253 217.976 17.0127 220.458 17.0127C223.869 17.0127 224.917 19.5849 224.917 22.4902V35.1936C224.917 36.3617 224.812 37.2378 224.606 37.8181C224.4 38.4022 224.041 38.8328 223.532 39.1173C223.023 39.3981 222.244 39.6153 221.188 39.765V40.555H235.7V39.765C234.457 39.6153 233.543 39.3981 232.963 39.1173C232.371 38.8365 231.971 38.406 231.742 37.8219ZM374.4 32.7675C373.153 35.4894 369.675 41.2926 362.599 41.2926C355.878 41.2926 350.292 35.7964 350.292 27.5184C350.292 24.9201 350.858 22.5314 351.985 20.3486C353.115 18.1659 354.647 16.4436 356.586 15.1819C358.525 13.9202 360.66 13.2912 362.996 13.2912C369.776 13.2912 373.157 18.0685 373.157 23.0481V24.1713H356.335C356.335 24.2724 356.331 24.3697 356.331 24.4708C356.331 30.4612 358.997 36.2157 365.703 36.2157C370.802 36.2157 372.936 33.3927 373.775 32.3781L374.4 32.7675ZM356.451 22.2656H367.002C366.931 18.1734 365.71 14.6016 362.374 14.5866C359.244 14.5754 356.975 17.4957 356.451 22.2656ZM299.516 37.8219C299.292 37.2378 299.179 36.3655 299.179 35.1973V22.3217C299.179 20.3636 298.85 18.7088 298.191 17.3534C297.532 15.9981 296.618 14.9835 295.454 14.3058C294.286 13.6282 292.949 13.2912 291.444 13.2912C289.711 13.2912 288.179 13.733 286.843 14.6166C285.506 15.5002 284.237 16.7731 283.031 18.428H282.919V0H282.694L271.515 3.21984V3.95366C272.758 3.95366 273.735 4.07722 274.45 4.32058C275.165 4.56394 275.674 4.94957 275.974 5.47747C276.273 6.00538 276.427 6.7392 276.427 7.67894V35.1936C276.427 36.3617 276.315 37.2378 276.09 37.8181C275.865 38.4022 275.45 38.8328 274.847 39.1173C274.244 39.3981 273.286 39.6153 271.968 39.765V40.555H286.648V39.765C285.633 39.6153 284.851 39.3981 284.304 39.1173C283.758 38.8365 283.391 38.4022 283.204 37.8181C283.016 37.2341 282.923 36.3617 282.923 35.1936V20.1015C284.222 18.5253 285.75 17.0127 288.232 17.0127C289.625 17.0127 290.714 17.4732 291.508 18.3943C292.298 19.3153 292.695 20.6819 292.695 22.4865V35.1936C292.695 36.3617 292.59 37.2378 292.384 37.8181C292.178 38.4022 291.819 38.8328 291.309 39.1173C290.8 39.3981 290.021 39.6153 288.966 39.765V40.555H303.477V39.765C302.234 39.6153 301.321 39.3981 300.741 39.1173C300.145 38.8365 299.745 38.406 299.516 37.8219ZM258.508 38.1214C250.182 38.1776 243.577 31.4833 243.577 20.622C243.577 9.14285 249.729 2.44858 256.764 2.44858C263.798 2.44858 266.816 8.78717 268.355 15.0134L269.482 14.9947V3.53808C266.839 2.07418 262.503 0.423072 256.202 0.423072C244.049 0.423072 234.876 9.31507 234.876 21.1873C234.876 32.4979 242.529 41.4423 255.696 41.3862C262.956 41.33 268.018 36.9982 270.437 33.6773L269.65 32.8349C268.018 34.6919 264.753 38.0653 258.508 38.1214ZM342.333 24.8639L338.439 22.9994C335.852 21.8425 334.373 20.3112 334.373 18.428C334.373 16.2939 336.327 14.8337 339.06 14.8337C343.04 14.8337 345.103 17.0352 345.957 21.9286H347.132V14.815C345.964 14.362 342.879 13.2912 339.738 13.2912C333.527 13.2912 329.745 17.1962 329.745 21.704C329.745 23.4374 330.206 24.95 331.127 26.2492C332.048 27.5484 333.433 28.6678 335.275 29.6076L339.341 31.6405C342.123 32.9098 343.239 34.1603 343.239 36.0435C343.239 38.1252 341.561 39.7538 338.383 39.7538C333.736 39.7538 331.527 35.3471 330.921 31.809H329.745V39.0911C331.516 40.2368 334.848 41.2926 337.933 41.2926C343.886 41.2926 348.038 37.6459 348.038 32.4867C348.035 28.7689 346.05 26.4439 342.333 24.8639ZM33.7072 23.4524V33.5575C33.7072 35.1374 33.9319 36.3505 34.3849 37.2004C34.8379 38.0465 35.5905 38.6605 36.6425 39.0349C37.6946 39.4131 39.297 39.6565 41.4423 39.7688V40.5588H19.5924V39.7688C21.4344 39.6565 22.8197 39.4131 23.7407 39.0349C24.6617 38.6605 25.3132 38.0578 25.6876 37.2266C26.062 36.3992 26.2529 35.1749 26.2529 33.5575V8.49139C26.2529 3.32842 23.9204 2.2801 20.3786 2.2801C16.4923 2.2801 14.1149 3.32467 14.1149 8.32291V36.3692C14.1149 42.7078 9.99648 48.7356 1.86451 48.7356C1.23552 48.7356 0.614016 48.6982 0 48.6271V47.9494C1.9319 47.8334 3.4969 47.1781 4.68749 45.9688C6.00538 44.6322 6.66432 42.442 6.66432 39.3906V8.31917C6.66432 6.7392 6.47712 5.5224 6.09898 4.67626C5.72083 3.83011 5.06189 3.21984 4.12214 2.8417C3.1824 2.4673 1.80835 2.22019 0 2.10787V1.31789H38.5819C47.3579 1.31789 52.7904 5.70586 52.7904 12.329C52.7904 19.9106 45.3436 23.4524 38.6868 23.4524H33.7072ZM33.7072 21.9361H36.3992C40.9781 21.9361 44.8307 19.2554 44.8307 12.3852C44.8307 3.98736 39.2858 2.83421 36.5377 2.83421H33.7072V21.9361ZM201.465 38.3049C202.397 38.3049 203.217 37.8968 203.737 37.5448V38.8852C202.696 39.8586 200.764 41.2739 197.859 41.2739C195.411 41.2739 193.355 39.7201 192.809 37.3501H192.663C191.708 39.1548 188.791 41.4348 185.609 41.4348C181.79 41.4348 178.978 38.8889 178.978 35.0176C178.978 31.9925 181.049 29.9782 184.493 28.7577L192.663 25.8149V22.0222C192.663 18.574 190.169 16.9828 187.466 16.9828C184.706 16.9828 182.161 18.1509 179.51 20.8541L178.716 20.1128C181.049 16.3463 184.763 13.2687 190.12 13.2687C195.212 13.2687 199.297 16.6121 199.244 22.0222L199.14 35.5493C199.132 37.455 199.93 38.3049 201.465 38.3049ZM192.663 27.582L189.375 28.9149C186.829 29.9221 185.186 31.0902 185.186 33.7933C185.186 36.0734 186.777 37.6646 189.005 37.6646C190.173 37.6646 191.869 36.7623 192.666 35.7552V27.582H192.663ZM326.106 38.3049C327.042 38.3049 327.858 37.893 328.383 37.5448V38.8852C327.342 39.8586 325.41 41.2776 322.501 41.2776C320.052 41.2776 317.997 39.7238 317.45 37.3539H317.304C316.349 39.1585 313.433 41.4386 310.25 41.4386C306.431 41.4386 303.62 38.8927 303.62 35.0214C303.62 31.9962 305.69 29.982 309.135 28.7614L317.304 25.8186V22.0222C317.304 18.574 314.81 16.9828 312.107 16.9828C309.348 16.9828 306.802 18.1509 304.151 20.8541L303.354 20.1128C305.686 16.3463 309.4 13.2687 314.758 13.2687C319.85 13.2687 323.935 16.6121 323.882 22.0222L323.777 35.5493C323.774 37.455 324.567 38.3049 326.106 38.3049ZM317.3 27.582L314.013 28.9149C311.467 29.9221 309.823 31.0902 309.823 33.7933C309.823 36.0734 311.415 37.6646 313.642 37.6646C314.81 37.6646 316.507 36.7623 317.304 35.7552V27.582H317.3ZM172.273 15.1445C174.688 17.0277 175.755 19.7384 175.755 22.0522C175.755 28.1287 170.562 31.2774 164.65 31.2774C163.092 31.2774 161.587 31.0565 160.213 30.6222C159.449 31.21 158.794 31.9775 158.794 32.8761C158.794 34.808 161.943 35.1973 163.822 35.3059L170.232 35.7477C175.369 36.0809 178.626 37.9005 178.626 42.4869C178.626 48.2864 171.767 53.0937 161.778 53.0937C155.979 53.0937 151.834 51.1056 151.834 47.5675C151.834 44.4937 153.526 42.734 157.877 40.6449C155.032 39.8174 154.373 38.1214 154.373 36.4628C154.373 34.194 156.398 32.1572 159.142 30.2253C155.855 28.84 153.545 26.0957 153.545 22.0447C153.545 15.9682 158.738 12.8195 164.65 12.8195C167.368 12.8195 169.532 13.4372 171.198 14.4069C172.441 11.9097 174.893 9.00432 179.289 9.00432V14.1898C176.941 13.4634 174.077 13.8416 172.273 15.1445ZM156.473 45.1452C156.473 48.35 160.12 49.784 164.871 49.784C169.401 49.784 175.53 47.7397 175.53 44.4787C175.53 42.5992 174.482 42.1574 171.719 41.9365L160.618 41.1129C159.966 41.0642 159.378 40.9893 158.85 40.8882C157.252 42.135 156.473 43.4154 156.473 45.1452ZM168.903 22.0559C168.903 16.863 167.192 14.377 164.65 14.377C162.108 14.377 160.397 16.863 160.397 22.0559C160.397 27.2488 162.108 29.7348 164.65 29.7348C167.192 29.7348 168.903 27.2488 168.903 22.0559Z"></path>
</g>
<defs>
<clipPath id="clip0_114_397">
<rect fill="white" height="53.1012" width="374.4"></rect>
</clipPath>
</defs>
</svg>
