<svg xmlns="http://www.w3.org/2000/svg" fill="none" viewBox="0 0 249 84" height="84" width="249">
<path fill="#FAF9F5" d="M96.4001 1.97632V3.43305H102.651V19.9023H104.359V3.43305H110.61V1.97632H96.4001Z"></path>
<path fill="#FAF9F5" d="M124.645 1.97632V9.75948H114V1.97632H112.295V19.9023H114V11.2162H124.645V19.9023H126.35V1.97632H124.645Z"></path>
<path fill="#FAF9F5" d="M129.97 1.97632V19.9023H142.471V18.4455H131.676V11.3667H141.668V9.90996H131.676V3.43305H142.345V1.97632H129.97Z"></path>
<path fill="#FAF9F5" d="M96.4001 64.3845V82.3084H98.1077V73.7728H106.693V72.3161H98.1077V65.8413H107.772V64.3845H96.4001Z"></path>
<path fill="#FAF9F5" d="M117.388 81.2287C122.107 81.2287 124.115 77.2619 124.115 73.3452C124.115 69.4306 122.107 65.4638 117.388 65.4638C112.643 65.4638 110.635 69.4306 110.635 73.3452C110.635 77.2619 112.643 81.2287 117.388 81.2287ZM117.388 64.0071C123.012 64.0071 125.823 68.4253 125.823 73.3452C125.823 78.2671 123.012 82.6854 117.388 82.6854C111.738 82.6854 108.927 78.2671 108.927 73.3452C108.927 68.4253 111.738 64.0071 117.388 64.0071Z"></path>
<path fill="#FAF9F5" d="M128.313 64.3835H130.021V75.4794C130.021 79.6217 131.952 81.2289 135.267 81.2289C138.606 81.2289 140.538 79.6217 140.538 75.4794V64.3835H142.245V75.8556C142.245 79.5465 140.262 82.6857 135.267 82.6857C130.322 82.6857 128.313 79.5465 128.313 75.8556V64.3835Z"></path>
<path fill="#FAF9F5" d="M145.662 64.3835H147.57L158.014 79.5465H158.064V64.3835H159.769V82.3074H157.863L147.42 67.1444H147.369V82.3074H145.662V64.3835Z"></path>
<path fill="#FAF9F5" d="M165.069 80.852H168.709C173.855 80.852 176.089 78.7181 176.089 73.3447C176.089 67.9734 173.855 65.8395 168.709 65.8395H165.069V80.852ZM163.361 64.3828H169.562C174.986 64.5082 177.797 67.4217 177.797 73.3447C177.797 79.2699 174.986 82.1813 169.562 82.3067H163.361V64.3828Z"></path>
<path fill="#FAF9F5" d="M183.097 75.2787H190.151L186.686 66.0911L183.097 75.2787ZM185.808 64.3835H187.716L194.745 82.3074H192.914L190.73 76.7354H182.571L180.412 82.3074H178.579L185.808 64.3835Z"></path>
<path fill="#FAF9F5" d="M192.74 64.3828V65.8395H198.991V82.3087H200.698V65.8395H206.95V64.3828H192.74Z"></path>
<path fill="#FAF9F5" d="M208.758 64.3845H210.465V82.3084H208.758V64.3845Z"></path>
<path fill="#FAF9F5" d="M221.712 81.2287C226.431 81.2287 228.44 77.2619 228.44 73.3452C228.44 69.4306 226.431 65.4638 221.712 65.4638C216.968 65.4638 214.959 69.4306 214.959 73.3452C214.959 77.2619 216.968 81.2287 221.712 81.2287ZM221.712 64.0071C227.336 64.0071 230.148 68.4253 230.148 73.3452C230.148 78.2671 227.336 82.6854 221.712 82.6854C216.063 82.6854 213.252 78.2671 213.252 73.3452C213.252 68.4253 216.063 64.0071 221.712 64.0071Z"></path>
<path fill="#FAF9F5" d="M232.786 64.3835H234.694L245.138 79.5465H245.188V64.3835H246.894V82.3074H244.988L234.544 67.1444H234.494V82.3074H232.786V64.3835Z"></path>
<path fill="#FAF9F5" d="M96.4001 25.2402H106.282V49.0913H120.475V57.3113H96.4001V25.2402Z"></path>
<path fill="#FAF9F5" d="M126.941 25.2412H136.823V57.3123H126.941V25.2412Z"></path>
<path fill="#FAF9F5" d="M144.188 25.2402H154.293L163.635 42.3991H163.727V25.2402H173.069V57.3113H163.457L153.62 39.7929H153.53V57.3113H144.188V25.2402Z"></path>
<path fill="#FAF9F5" d="M209.582 44.9134C209.582 53.8523 204.867 58.0741 194.983 58.0741C185.104 58.0741 180.341 53.8523 180.341 44.9134V25.2402H190.224V42.7126C190.224 45.9459 190.178 50.0778 195.029 50.0778C199.7 50.0778 199.7 45.9459 199.7 42.7126V25.2402H209.582V44.9134Z"></path>
<path fill="#FAF9F5" d="M225.3 40.2423L214.744 25.2402H226.333L231.184 33.9534L235.945 25.2402H246.905L236.62 40.3321L248.073 57.3113H236.168L230.69 47.7433L225.031 57.3113H213.711L225.3 40.2423Z"></path>
<path fill="#FAF9F5" d="M82.4053 1.67163H1.79614V25.8613H17.9142V17.867H66.2873V66.1837H58.2366V82.308H82.4053V1.67163Z"></path>
<path fill="#0096D6" d="M17.9378 66.1833V33.9409H1.78418V82.3077H50.1719V66.1833H17.9378Z"></path>
</svg>
