<svg xmlns="http://www.w3.org/2000/svg" fill="none" viewBox="0 0 321 69" height="69" width="321">
<g clip-path="url(#clip0_90_3141)">
<path fill="#FAF9F5" d="M133.38 13.6799V54.7199H126.255V22.5149H126.16L113.43 54.7199H108.68L95.6646 22.5149H95.5696V54.7199H89.0146V13.6799H99.2747L111.055 44.0799H111.245L123.69 13.6799H133.38ZM139.27 16.8149C139.27 15.6749 139.65 14.7249 140.505 13.9649C141.36 13.2049 142.31 12.8249 143.45 12.8249C144.685 12.8249 145.73 13.2049 146.49 13.9649C147.25 14.7249 147.725 15.6749 147.725 16.8149C147.725 17.9549 147.345 18.9049 146.49 19.6649C145.635 20.4249 144.685 20.8049 143.45 20.8049C142.215 20.8049 141.265 20.4249 140.505 19.6649C139.745 18.8099 139.27 17.8599 139.27 16.8149ZM146.965 25.2699V54.7199H140.03V25.2699H146.965ZM167.96 49.6849C169.005 49.6849 170.145 49.4949 171.38 48.9249C172.615 48.4499 173.755 47.7849 174.8 47.0249V53.4849C173.66 54.1499 172.425 54.6249 171 54.9099C169.575 55.1949 168.055 55.3849 166.345 55.3849C161.975 55.3849 158.46 54.0549 155.8 51.2999C153.045 48.5449 151.715 45.0299 151.715 40.8499C151.715 36.0999 153.14 32.2049 155.895 29.1649C158.65 26.1249 162.545 24.6049 167.675 24.6049C169.005 24.6049 170.335 24.7949 171.57 25.0799C172.9 25.3649 173.945 25.8399 174.705 26.2199V32.8699C173.66 32.1099 172.52 31.4449 171.475 31.0649C170.335 30.6849 169.195 30.3999 168.055 30.3999C165.3 30.3999 163.115 31.2549 161.405 33.0599C159.695 34.8649 158.935 37.2399 158.935 40.2799C158.935 43.2249 159.79 45.5999 161.405 47.2149C163.02 48.8299 165.205 49.6849 167.96 49.6849ZM194.465 24.7949C195.035 24.7949 195.51 24.7949 195.985 24.8899C196.46 24.9849 196.84 25.0799 197.125 25.1749V32.2049C196.745 31.9199 196.27 31.6349 195.51 31.4449C194.75 31.2549 193.99 31.0649 192.945 31.0649C191.235 31.0649 189.81 31.8249 188.67 33.2499C187.53 34.6749 186.865 36.8599 186.865 39.8999V54.7199H179.93V25.2699H186.865V29.9249H186.96C187.625 28.3099 188.575 27.0749 189.81 26.1249C191.14 25.2699 192.66 24.7949 194.465 24.7949ZM197.505 40.4699C197.505 35.6249 198.93 31.7299 201.59 28.8799C204.345 26.0299 208.145 24.6049 212.99 24.6049C217.55 24.6049 221.16 25.9349 223.725 28.6899C226.29 31.4449 227.62 35.1499 227.62 39.8049C227.62 44.5549 226.195 48.3549 223.535 51.2049C220.78 54.0549 217.075 55.4799 212.325 55.4799C207.765 55.4799 204.155 54.1499 201.495 51.4899C198.835 48.7349 197.505 45.0299 197.505 40.4699ZM204.725 40.1849C204.725 43.2249 205.39 45.5999 206.815 47.2149C208.24 48.8299 210.235 49.6849 212.8 49.6849C215.27 49.6849 217.265 48.9249 218.595 47.2149C219.925 45.5999 220.59 43.2249 220.59 39.9949C220.59 36.8599 219.925 34.4849 218.595 32.7749C217.265 31.1599 215.27 30.3049 212.895 30.3049C210.33 30.3049 208.43 31.1599 207.005 32.8699C205.39 34.6749 204.725 37.0499 204.725 40.1849ZM237.975 33.0599C237.975 34.0099 238.26 34.8649 238.925 35.4349C239.59 36.0049 240.92 36.6699 243.105 37.5249C245.86 38.6649 247.855 39.8999 248.9 41.2299C250.04 42.6549 250.61 44.2699 250.61 46.2649C250.61 49.0199 249.565 51.2049 247.38 52.9149C245.29 54.6249 242.345 55.3849 238.735 55.3849C237.5 55.3849 236.17 55.1949 234.65 54.9099C233.13 54.6249 231.895 54.2449 230.85 53.7699V46.9299C232.085 47.7849 233.51 48.5449 234.935 49.0199C236.36 49.4949 237.69 49.7799 238.925 49.7799C240.445 49.7799 241.68 49.5899 242.345 49.1149C243.105 48.6399 243.485 47.9749 243.485 46.9299C243.485 45.9799 243.105 45.2199 242.345 44.4599C241.585 43.7949 240.065 43.0349 237.975 42.1799C235.41 41.1349 233.605 39.8999 232.56 38.5699C231.515 37.2399 230.945 35.5299 230.945 33.4399C230.945 30.7799 231.99 28.5949 234.08 26.8849C236.17 25.1749 238.925 24.3199 242.25 24.3199C243.295 24.3199 244.435 24.4149 245.67 24.6999C246.905 24.9849 248.045 25.2699 248.9 25.5549V32.2999C247.95 31.7299 246.905 31.1599 245.67 30.6849C244.435 30.2099 243.2 30.0199 242.06 30.0199C240.73 30.0199 239.685 30.3049 239.02 30.7799C238.355 31.4449 237.975 32.1099 237.975 33.0599ZM253.555 40.4699C253.555 35.6249 254.98 31.7299 257.64 28.8799C260.395 26.0299 264.195 24.6049 269.04 24.6049C273.6 24.6049 277.21 25.9349 279.775 28.6899C282.34 31.4449 283.67 35.1499 283.67 39.8049C283.67 44.5549 282.245 48.3549 279.585 51.2049C276.83 54.0549 273.125 55.4799 268.375 55.4799C263.815 55.4799 260.205 54.1499 257.545 51.4899C254.98 48.7349 253.555 45.0299 253.555 40.4699ZM260.775 40.1849C260.775 43.2249 261.44 45.5999 262.865 47.2149C264.29 48.8299 266.285 49.6849 268.85 49.6849C271.32 49.6849 273.315 48.9249 274.645 47.2149C275.975 45.5999 276.64 43.2249 276.64 39.9949C276.64 36.8599 275.975 34.4849 274.645 32.7749C273.315 31.1599 271.32 30.3049 268.945 30.3049C266.38 30.3049 264.48 31.1599 263.055 32.8699C261.535 34.6749 260.775 37.0499 260.775 40.1849ZM306.755 30.9699H296.4V54.7199H289.37V30.9699H284.43V25.2699H289.37V21.1849C289.37 18.1449 290.415 15.5799 292.41 13.5849C294.405 11.5899 296.97 10.6399 300.105 10.6399C300.96 10.6399 301.72 10.7349 302.385 10.7349C303.05 10.7349 303.62 10.9249 304.095 11.1149V17.0999C303.905 17.0049 303.43 16.8149 302.86 16.6249C302.29 16.4349 301.625 16.3399 300.865 16.3399C299.44 16.3399 298.3 16.8149 297.54 17.6699C296.78 18.5249 296.4 19.9499 296.4 21.6599V25.1749H306.755V18.5249L313.69 16.4349V25.1749H320.72V30.8749H313.69V44.6499C313.69 46.4549 314.07 47.6899 314.64 48.4499C315.305 49.2099 316.35 49.5899 317.775 49.5899C318.155 49.5899 318.63 49.4949 319.2 49.3049C319.77 49.1149 320.245 48.9249 320.625 48.6399V54.3399C320.15 54.6249 319.485 54.8149 318.44 55.0049C317.395 55.1949 316.445 55.2899 315.4 55.2899C312.455 55.2899 310.27 54.5299 308.845 53.0099C307.42 51.4899 306.66 49.1149 306.66 45.9799L306.755 30.9699Z"></path>
<path fill="#F25022" d="M32.4895 0H-0.000488281V32.49H32.4895V0Z"></path>
<path fill="#7FBA00" d="M68.3994 0H35.9094V32.49H68.3994V0Z"></path>
<path fill="#00A4EF" d="M32.4895 35.9099H-0.000488281V68.3999H32.4895V35.9099Z"></path>
<path fill="#FFB900" d="M68.3994 35.9099H35.9094V68.3999H68.3994V35.9099Z"></path>
</g>
<defs>
<clipPath id="clip0_90_3141">
<rect fill="white" height="68.4" width="320.72"></rect>
</clipPath>
</defs>
</svg>
