<svg xmlns="http://www.w3.org/2000/svg" fill="none" viewBox="0 0 321 61" height="61" width="321">
<path fill="#FAF9F5" d="M195.76 11.5118V51.4626H207.034V11.5118H195.76ZM107.055 11.4441V51.4287H118.431V20.3822L127.302 20.4161C130.213 20.4161 132.245 21.1271 133.633 22.6168C135.427 24.5127 136.138 27.5937 136.138 33.18V51.4287H147.175V29.3542C147.175 13.5771 137.12 11.4441 127.302 11.4441H107.055ZM213.941 11.5118V51.4626H232.223C241.974 51.4626 245.156 49.8374 248.576 46.2148C251.014 43.6755 252.571 38.0554 252.571 31.9273C252.571 26.3071 251.251 21.2964 248.914 18.1816C244.784 12.5952 238.757 11.5118 229.752 11.5118H213.941ZM225.113 20.1791H229.955C236.997 20.1791 241.534 23.3277 241.534 31.521C241.534 39.7143 236.997 42.8968 229.955 42.8968H225.113V20.1791ZM179.508 11.5118L170.096 43.1677L161.091 11.5118H148.902L161.768 51.4626H178.019L191.02 11.5118H179.508ZM257.853 51.4626H269.127V11.5118H257.853V51.4626ZM289.475 11.5118L273.731 51.4287H284.836L287.342 44.3527H305.963L308.333 51.3948H320.42L304.541 11.5118H289.475ZM296.788 18.791L303.627 37.4798H289.745L296.788 18.791Z"></path>
<path fill="#76B900" d="M34.2967 18.1471V12.6624C34.8384 12.6285 35.3801 12.5946 35.9218 12.5946C50.9541 12.1207 60.8064 25.5279 60.8064 25.5279C60.8064 25.5279 50.1754 40.2893 38.7658 40.2893C37.2422 40.2893 35.7525 40.0523 34.3306 39.5783V22.9209C40.1878 23.6319 41.3727 26.205 44.86 32.0622L52.6808 25.494C52.6808 25.494 46.9591 18.0117 37.3438 18.0117C36.3281 17.9778 35.3124 18.0456 34.2967 18.1471ZM34.2967 0V8.19329L35.9218 8.09172C56.8113 7.38073 70.4555 25.2231 70.4555 25.2231C70.4555 25.2231 54.8138 44.2505 38.5288 44.2505C37.1068 44.2505 35.7187 44.1151 34.3306 43.8781V48.9566C35.4817 49.092 36.6667 49.1936 37.8178 49.1936C52.9855 49.1936 63.9551 41.4404 74.586 32.2992C76.3466 33.7211 83.558 37.1407 85.0477 38.6303C74.9585 47.0945 51.4281 53.8997 38.0886 53.8997C36.8021 53.8997 35.5833 53.832 34.3644 53.6965V60.8403H91.9883V0L34.2967 0ZM34.2967 39.5783V43.912C20.2801 41.4066 16.3866 26.8144 16.3866 26.8144C16.3866 26.8144 23.124 19.366 34.2967 18.1471V22.887H34.2629C28.4057 22.1761 23.8012 27.6608 23.8012 27.6608C23.8012 27.6608 26.4081 36.9037 34.2967 39.5783ZM9.41213 26.205C9.41213 26.205 17.707 13.9489 34.3306 12.6624V8.19329C15.9126 9.68298 0 25.257 0 25.257C0 25.257 9.00585 51.3266 34.2967 53.6965V48.9566C15.7433 46.6544 9.41213 26.205 9.41213 26.205Z"></path>
</svg>
