<svg xmlns="http://www.w3.org/2000/svg" fill="none" viewBox="0 0 353 65" height="65" width="353">
<g clip-path="url(#clip0_90_3152)">
<path fill="#FAF9F5" d="M149.756 11.8215C145.223 11.8215 140.514 13.0622 134.686 16.1964L137.924 24.2361C142.985 21.3984 147.165 20.1578 150.227 20.1578C153.7 20.1578 155.231 21.4583 155.231 23.1723V23.2894C155.231 24.4728 154.288 25.1231 151.994 25.3598L147.992 25.7733C137.983 26.8371 133.862 31.212 133.862 37.2412V37.6547C133.862 43.3899 138.571 47.8819 145.223 47.8819C149.603 47.8819 153.408 46.0248 155.721 42.7475L156.467 47.2914H165.532V26.6603C165.532 16.9065 159.94 11.8215 149.756 11.8215ZM148.872 40.0164C145.518 40.0164 143.928 38.7159 143.928 36.7053V36.5883C143.928 34.8144 144.928 33.5139 148.577 32.9833L150.167 32.7466C152.491 32.4215 153.918 31.9923 155.231 31.1938V33.8104C155.231 37.7718 152.758 40.0164 148.872 40.0164Z"></path>
<path fill="#F04E23" d="M35.4248 41.2517L64.5125 12.058L52.9085 0.41333L41.3045 12.058L47.0806 17.8531L18.0059 47.0519L29.5969 58.7044L41.2009 47.0519L35.4248 41.2517Z"></path>
<path fill="#F04E23" d="M29.7221 0.4097L0.637695 29.6157L12.2348 41.2613L41.3192 12.0553L29.7221 0.4097Z"></path>
<path fill="#F04E23" d="M70.2792 17.8653L41.1948 47.0713L52.792 58.7169L81.8764 29.5109L70.2792 17.8653Z"></path>
<path fill="#FAF9F5" d="M181.711 -0.000244141H171.41V47.286H181.711V-0.000244141Z"></path>
<path fill="#FAF9F5" d="M116.549 11.8217C111.866 11.8217 108.105 13.9025 106.035 17.1615L105.248 12.4121H96.1821V59.1002H106.483V42.9141C108.444 45.9495 112.153 47.869 116.549 47.869C124.791 47.869 131.502 40.5394 131.502 30.4293V29.2458C131.502 19.1435 124.791 11.8113 116.549 11.8113M120.905 30.138C120.905 35.457 118.139 39.3013 113.547 39.3013C108.954 39.3013 106.188 35.4596 106.188 30.138V29.5475C106.188 24.2259 108.954 20.3842 113.547 20.3842C118.139 20.3842 120.905 24.2259 120.905 29.5475V30.138Z"></path>
<path fill="#FAF9F5" d="M320.785 11.8215C310.248 11.8215 302.83 19.1512 302.83 29.2613V30.4447C302.83 40.5522 310.248 47.8845 320.785 47.8845C331.322 47.8845 338.74 40.5548 338.74 30.4447V29.2613C338.74 19.1538 331.322 11.8215 320.785 11.8215ZM328.143 30.1482C328.143 35.4673 325.377 39.3116 320.785 39.3116C316.192 39.3116 313.426 35.4699 313.426 30.1482V29.5578C313.426 24.2361 316.192 20.3944 320.785 20.3944C325.377 20.3944 328.143 24.2361 328.143 29.5578V30.1482Z"></path>
<path fill="#FAF9F5" d="M272.548 -0.000244141H262.247V47.286H272.548V-0.000244141Z"></path>
<path fill="#FAF9F5" d="M292.811 39.3011C289.809 39.3011 288.69 37.8237 288.69 34.6323V20.384H300.817V12.4041H288.69V4.42163L278.389 5.95882V35.6363C278.389 43.7358 282.51 47.874 290.752 47.874C294.401 47.874 298.698 46.7504 302.231 44.7398L299.289 37.4102C297.224 38.5338 294.342 39.3037 292.811 39.3037"></path>
<path fill="#FAF9F5" d="M240.464 11.8215C235.931 11.8215 231.222 13.0622 225.394 16.1964L228.632 24.2361C233.693 21.3984 237.874 20.1578 240.936 20.1578C244.409 20.1578 245.94 21.4583 245.94 23.1723V23.2894C245.94 24.4728 244.997 25.1231 242.702 25.3598L238.7 25.7733C228.692 26.8371 224.571 31.212 224.571 37.2412V37.6547C224.571 43.3899 229.28 47.8819 235.931 47.8819C240.309 47.8819 244.116 46.0248 246.429 42.7475L247.175 47.2914H256.241V26.6603C256.241 16.9065 250.649 11.8215 240.464 11.8215ZM239.581 40.0164C236.224 40.0164 234.636 38.7159 234.636 36.7053V36.5883C234.636 34.8144 235.636 33.5139 239.286 32.9833L240.876 32.7466C243.199 32.4215 244.627 31.9923 245.937 31.1938V33.8104C245.937 37.7718 243.466 40.0164 239.581 40.0164Z"></path>
<path fill="#FAF9F5" d="M204.253 11.8215C193.716 11.8215 186.298 19.1512 186.298 29.2613V30.4447C186.298 40.5522 193.716 47.8845 204.253 47.8845C214.79 47.8845 222.208 40.5548 222.208 30.4447V29.2613C222.205 19.1538 214.79 11.8215 204.253 11.8215ZM211.609 30.1482C211.609 35.4673 208.843 39.3116 204.25 39.3116C199.658 39.3116 196.892 35.4699 196.892 30.1482V29.5578C196.892 24.2361 199.658 20.3944 204.25 20.3944C208.843 20.3944 211.609 24.2361 211.609 29.5578V30.1482Z"></path>
<path fill="#FAF9F5" d="M252.611 64.1925L248.881 59.2506H248.855V64.1925H246.42V55.6873H249.062L252.715 60.4991H252.74V55.6873H255.175V64.1925H252.611Z"></path>
<path fill="#FAF9F5" d="M260.951 60.7852V62.1117H266.132L265.873 64.1925H258.387V55.6873H265.873V57.742H260.951V58.9125H264.837V60.7852H260.951Z"></path>
<path fill="#FAF9F5" d="M271.312 64.1925V57.8721H268.204V55.6873H276.492L276.751 57.8721H273.643V64.1925H271.312Z"></path>
<path fill="#FAF9F5" d="M289.185 61.5915L290.48 55.6873H293.07L290.739 64.1925H287.631L286.077 59.0426H285.818L284.264 64.1925H280.896L278.824 55.6873H281.414L282.968 61.5915L284.782 55.6873H287.372L288.926 61.5915H289.185Z"></path>
<path fill="#FAF9F5" d="M294.884 59.9269C294.884 57.1542 296.759 55.4167 299.725 55.4167C302.691 55.4167 304.568 57.1542 304.568 59.9269C304.568 62.6996 302.693 64.437 299.725 64.437C296.759 64.437 294.884 62.697 294.884 59.9269ZM302.038 59.9269C302.038 58.4573 301.191 57.5808 299.725 57.5808C298.259 57.5808 297.412 58.4573 297.412 59.9269C297.412 61.3991 298.259 62.273 299.712 62.273C301.178 62.273 302.038 61.3965 302.038 59.9269Z"></path>
<path fill="#FAF9F5" d="M307.315 55.6873H312.255C314.506 55.6873 315.609 56.7563 315.609 58.7382C315.609 60.0986 315.052 61.0245 313.962 61.4615L315.972 64.1977H313.092L311.53 61.9609H309.859V64.1977H307.315V55.6873ZM311.926 59.9659C312.773 59.9659 313.076 59.4925 313.076 58.8475C313.076 58.2024 312.773 57.742 311.926 57.742H309.856V59.9659H311.926Z"></path>
<path fill="#FAF9F5" d="M324.67 59.7708L328.037 64.1665V64.1925H325.188L322.597 60.9153H321.561V64.1925H318.971V55.6873H321.561V58.8085H322.597L324.929 55.6873H328.037L324.67 59.7708Z"></path>
<path fill="#FAF9F5" d="M330.11 63.6203V61.2872H330.123C331.54 62.005 332.92 62.3562 334.117 62.3562C335.026 62.3562 335.484 62.1377 335.484 61.7111C335.484 61.2846 335.181 61.1753 333.366 60.884C331.382 60.5693 330.061 59.9711 330.061 58.257C330.061 56.6652 331.454 55.4375 334.176 55.4375C335.267 55.4375 336.404 55.669 337.458 56.119V58.4287L337.445 58.4417C336.44 57.859 335.085 57.4923 333.995 57.4923C333.026 57.4923 332.64 57.7238 332.64 58.1113C332.64 58.6107 333.234 58.6575 334.723 58.915C336.707 59.2558 338.028 59.815 338.028 61.6149C338.028 63.0116 336.987 64.411 333.998 64.411C332.521 64.411 331.345 64.1067 330.11 63.6203Z"></path>
</g>
<defs>
<clipPath id="clip0_90_3152">
<rect fill="white" height="64.4385" width="352.426"></rect>
</clipPath>
</defs>
</svg>
